<?xml version="1.0" encoding="utf-8"?>
<!-- Generator: Adobe Illustrator 15.0.0, SVG Export Plug-In . SVG Version: 6.00 Build 0)  -->
<!DOCTYPE svg PUBLIC "-//W3C//DTD SVG 1.1//EN" "http://www.w3.org/Graphics/SVG/1.1/DTD/svg11.dtd">
<svg version="1.1" id="Layer_1" xmlns="http://www.w3.org/2000/svg" xmlns:xlink="http://www.w3.org/1999/xlink" x="0px" y="0px"
	 width="1242px" height="75.414px" viewBox="0 0 1242 75.414" enable-background="new 0 0 1242 75.414" xml:space="preserve">
<path fill="#E3E5E2" d="M1242,75.414H0v-70.6C0,2.155,3.38,0,7.548,0h1226.905c4.168,0,7.547,2.155,7.547,4.814V75.414z"/>
<rect y="38.663" fill="#F5F6F4" width="1242" height="36.751"/>
<path fill="#F5F6F4" d="M295.334,41.666c2.93,0-224.243,0-219.999,0s13.088-23.558,13.088-23.558c0-3.098,2.375-5.609,5.305-5.609
	h185.688c2.93,0,5.305,2.511,5.305,5.609C284.722,18.108,292.404,41.666,295.334,41.666z"/>
<circle fill="#7BC306" cx="62.791" cy="20.956" r="5.792"/>
<circle fill="#ECA300" cx="42" cy="20.956" r="5.792"/>
<circle fill="#C83C31" cx="21.001" cy="20.956" r="5.792"/>
<path fill="#FEFEFD" stroke="#E7E9E6" stroke-width="1.1679" stroke-miterlimit="10" d="M1202.499,65.166c0,2.209-2.443,4-5.456,4
	H96.79c-3.013,0-5.456-1.791-5.456-4V46.667c0-2.209,2.443-4,5.456-4h1100.253c3.013,0,5.456,1.791,5.456,4V65.166z"/>
<g>
	
		<line fill="none" stroke="#CFD2CF" stroke-width="3" stroke-linecap="round" stroke-miterlimit="10" x1="30.168" y1="57.007" x2="17.501" y2="57.007"/>
	
		<line fill="none" stroke="#CFD2CF" stroke-width="3" stroke-linecap="round" stroke-miterlimit="10" x1="22.501" y1="51.682" x2="17.355" y2="56.829"/>
	
		<line fill="none" stroke="#CFD2CF" stroke-width="3" stroke-linecap="round" stroke-miterlimit="10" x1="22.502" y1="62.153" x2="17.354" y2="57.007"/>
</g>
<g>
	
		<line fill="none" stroke="#CFD2CF" stroke-width="3" stroke-linecap="round" stroke-miterlimit="10" x1="40.999" y1="56.828" x2="53.666" y2="56.828"/>
	
		<line fill="none" stroke="#CFD2CF" stroke-width="3" stroke-linecap="round" stroke-miterlimit="10" x1="48.666" y1="62.153" x2="53.812" y2="57.006"/>
	
		<line fill="none" stroke="#CFD2CF" stroke-width="3" stroke-linecap="round" stroke-miterlimit="10" x1="48.665" y1="51.682" x2="53.812" y2="56.828"/>
</g>
<g>
	<path fill="none" stroke="#696B68" stroke-width="2.8024" stroke-linecap="round" stroke-miterlimit="10" d="M78.323,52.062
		c-2.657-1.828-6.292-1.155-8.119,1.501c-1.828,2.658-1.154,6.293,1.502,8.119c2.656,1.827,6.291,1.155,8.119-1.502
		c0.093-0.135,0.175-0.274,0.255-0.413"/>
	<polygon fill="#696B68" points="81.378,55.871 74.628,55.871 81.378,49.121 	"/>
</g>
<g>
	
		<line fill="none" stroke="#777A77" stroke-width="2.8459" stroke-linecap="round" stroke-miterlimit="10" x1="1216.654" y1="50.416" x2="1230.153" y2="50.416"/>
	
		<line fill="none" stroke="#777A77" stroke-width="2.8459" stroke-linecap="round" stroke-miterlimit="10" x1="1216.654" y1="55.666" x2="1230.153" y2="55.666"/>
	
		<line fill="none" stroke="#777A77" stroke-width="2.8459" stroke-linecap="round" stroke-miterlimit="10" x1="1216.654" y1="60.416" x2="1230.153" y2="60.416"/>
</g>
</svg>
