<?xml version="1.0" encoding="utf-8"?>
<!-- Generator: Adobe Illustrator 15.0.0, SVG Export Plug-In . SVG Version: 6.00 Build 0)  -->
<!DOCTYPE svg PUBLIC "-//W3C//DTD SVG 1.1//EN" "http://www.w3.org/Graphics/SVG/1.1/DTD/svg11.dtd">
<svg version="1.1" id="Layer_1" xmlns="http://www.w3.org/2000/svg" xmlns:xlink="http://www.w3.org/1999/xlink" x="0px" y="0px"
	 width="298.582px" height="298.582px" viewBox="0 0 298.582 298.582" enable-background="new 0 0 298.582 298.582"
	 xml:space="preserve">
<circle fill="#07BFE9" cx="149.291" cy="149.291" r="149.291"/>
<path fill="#10ACC6" d="M262.79,129.92L149.572,252.948l42.242,38.873c57.606-16.921,100.748-67.638,106.49-129.22L262.79,129.92z"
	/>
<polygon fill="#CCF3FF" points="263.002,130.424 150.573,253.582 38.144,130.424 "/>
<polygon fill="#BDF6FF" points="263.002,130.424 206.16,73.582 93.731,73.582 38.144,130.424 "/>
<polygon opacity="0.4" fill="#F3FEFF" enable-background="new    " points="207.381,73.582 149.927,130.424 92.475,73.582 "/>
<polygon opacity="0.5" fill="#FFFFFF" enable-background="new    " points="206.16,130.424 150.573,253.582 92.476,130.424 
	149.318,73.582 "/>
<g>
	<line fill="none" x1="93.698" y1="132.667" x2="110.644" y2="139.445"/>
	<circle fill="none" cx="93.698" cy="132.667" r="15.209"/>
	<circle fill="none" cx="93.698" cy="132.667" r="18.25"/>
	<polyline fill="none" points="93.698,132.667 94.109,132.914 93.698,132.667 93.287,132.421 93.698,132.667 93.452,133.079 
		93.698,132.667 93.945,132.256 93.698,132.667 92.342,138.029 93.698,132.667 95.054,127.306 93.698,132.667 88.336,131.312 
		93.698,132.667 99.06,134.023 93.698,132.667 120.348,167.426 93.698,132.667 67.049,97.909 93.698,132.667 58.94,159.316 
		93.698,132.667 128.457,106.018 93.698,132.667 87.536,158.379 93.698,132.667 99.861,106.956 93.698,132.667 67.986,126.505 
		93.698,132.667 119.411,138.83 93.698,132.667 140.049,173.545 93.698,132.667 47.347,91.791 93.698,132.667 52.822,179.02 
		93.698,132.667 134.575,86.316 93.698,132.667 82.234,204.486 93.698,132.667 105.163,60.848 93.698,132.667 21.879,121.203 
		93.698,132.667 165.519,144.132 93.698,132.667 97.419,163.153 93.698,132.667 89.977,102.182 93.698,132.667 63.212,136.389 
		93.698,132.667 124.184,128.946 93.698,132.667 98.207,135.861 93.698,132.667 89.189,129.474 93.698,132.667 90.504,137.176 
		93.698,132.667 96.892,128.159 93.698,132.667 151.369,187.418 93.698,132.667 36.028,77.916 93.698,132.667 38.947,190.338 
		93.698,132.667 148.45,74.997 93.698,132.667 155.688,188.327 93.698,132.667 31.708,77.008 93.698,132.667 38.039,194.658 
		93.698,132.667 149.358,70.677 93.698,132.667 137.931,163.764 93.698,132.667 49.466,101.571 93.698,132.667 62.602,176.9 
		93.698,132.667 124.794,88.435 93.698,132.667 148.939,167.165 93.698,132.667 38.457,98.169 93.698,132.667 59.2,187.908 
		93.698,132.667 128.197,77.426 93.698,132.667 135.7,181.23 93.698,132.667 51.696,84.105 93.698,132.667 45.136,174.67 
		93.698,132.667 142.261,90.666 93.698,132.667 132.431,166.349 93.698,132.667 54.966,98.985 93.698,132.667 60.017,171.399 
		93.698,132.667 127.38,93.936 93.698,132.667 94.864,150.543 93.698,132.667 92.532,114.792 93.698,132.667 75.823,133.833 
		93.698,132.667 111.573,131.501 	"/>
	<radialGradient id="SVGID_1_" cx="93.6982" cy="132.667" r="36.5019" gradientUnits="userSpaceOnUse">
		<stop  offset="0" style="stop-color:#230000"/>
		<stop  offset="0.73" style="stop-color:#93432A"/>
		<stop  offset="1" style="stop-color:#230000"/>
	</radialGradient>
	<circle opacity="0.15" fill="url(#SVGID_1_)" cx="93.698" cy="132.667" r="36.502"/>
	<radialGradient id="SVGID_2_" cx="93.6982" cy="132.6675" r="18.2505" gradientUnits="userSpaceOnUse">
		<stop  offset="0.15" style="stop-color:#FFFFFF"/>
		<stop  offset="0.2114" style="stop-color:#E2D1D2"/>
		<stop  offset="0.2918" style="stop-color:#BF9A9C"/>
		<stop  offset="0.3613" style="stop-color:#A67276"/>
		<stop  offset="0.4163" style="stop-color:#975A5E"/>
		<stop  offset="0.45" style="stop-color:#915155"/>
		<stop  offset="0.5553" style="stop-color:#6C3638"/>
		<stop  offset="0.6842" style="stop-color:#44191A"/>
		<stop  offset="0.787" style="stop-color:#2C0707"/>
		<stop  offset="0.85" style="stop-color:#230000"/>
		<stop  offset="0.8572" style="stop-color:#270201"/>
		<stop  offset="0.8647" style="stop-color:#340805"/>
		<stop  offset="0.8723" style="stop-color:#48120B"/>
		<stop  offset="0.88" style="stop-color:#652114"/>
		<stop  offset="0.8878" style="stop-color:#8B331F"/>
		<stop  offset="0.8955" style="stop-color:#B8492D"/>
		<stop  offset="0.9" style="stop-color:#D65836"/>
		<stop  offset="0.903" style="stop-color:#C95232"/>
		<stop  offset="0.9146" style="stop-color:#9D3C25"/>
		<stop  offset="0.9267" style="stop-color:#782A1A"/>
		<stop  offset="0.9392" style="stop-color:#591B10"/>
		<stop  offset="0.9523" style="stop-color:#410F09"/>
		<stop  offset="0.9661" style="stop-color:#300604"/>
		<stop  offset="0.9812" style="stop-color:#260201"/>
		<stop  offset="1" style="stop-color:#230000"/>
	</radialGradient>
	<circle opacity="0.5" fill="url(#SVGID_2_)" cx="93.698" cy="132.667" r="18.25"/>
	<radialGradient id="SVGID_3_" cx="93.6982" cy="132.667" r="15.209" gradientUnits="userSpaceOnUse">
		<stop  offset="0.15" style="stop-color:#FFFFFF"/>
		<stop  offset="0.2824" style="stop-color:#C2C2C2"/>
		<stop  offset="0.4253" style="stop-color:#888888"/>
		<stop  offset="0.5636" style="stop-color:#575757"/>
		<stop  offset="0.6936" style="stop-color:#313131"/>
		<stop  offset="0.8134" style="stop-color:#161616"/>
		<stop  offset="0.9192" style="stop-color:#060606"/>
		<stop  offset="1" style="stop-color:#000000"/>
	</radialGradient>
	<circle fill="url(#SVGID_3_)" cx="93.698" cy="132.667" r="15.209"/>
	<polyline opacity="0.03" fill="none" stroke="#FFFFFF" stroke-width="2.2595" stroke-miterlimit="10" points="93.698,132.667 
		94.109,132.914 93.698,132.667 93.287,132.421 93.698,132.667 93.452,133.079 93.698,132.667 93.945,132.256 93.698,132.667 
		92.342,138.029 93.698,132.667 95.054,127.306 93.698,132.667 88.336,131.312 93.698,132.667 99.06,134.023 93.698,132.667 
		120.348,167.426 93.698,132.667 67.049,97.909 93.698,132.667 58.94,159.316 93.698,132.667 128.457,106.018 93.698,132.667 
		87.536,158.379 93.698,132.667 99.861,106.956 93.698,132.667 67.986,126.505 93.698,132.667 119.411,138.83 93.698,132.667 
		140.049,173.545 93.698,132.667 47.347,91.791 93.698,132.667 52.822,179.02 93.698,132.667 134.575,86.316 93.698,132.667 
		82.234,204.486 93.698,132.667 105.163,60.848 93.698,132.667 21.879,121.203 93.698,132.667 165.519,144.132 93.698,132.667 
		97.419,163.153 93.698,132.667 89.977,102.182 93.698,132.667 63.212,136.389 93.698,132.667 124.184,128.946 93.698,132.667 
		98.207,135.861 93.698,132.667 89.189,129.474 93.698,132.667 90.504,137.176 93.698,132.667 96.892,128.159 93.698,132.667 
		151.369,187.418 93.698,132.667 36.028,77.916 93.698,132.667 38.947,190.338 93.698,132.667 148.45,74.997 93.698,132.667 
		155.688,188.327 93.698,132.667 31.708,77.008 93.698,132.667 38.039,194.658 93.698,132.667 149.358,70.677 93.698,132.667 
		137.931,163.764 93.698,132.667 49.466,101.571 93.698,132.667 62.602,176.9 93.698,132.667 124.794,88.435 93.698,132.667 
		148.939,167.165 93.698,132.667 38.457,98.169 93.698,132.667 59.2,187.908 93.698,132.667 128.197,77.426 93.698,132.667 
		135.7,181.23 93.698,132.667 51.696,84.105 93.698,132.667 45.136,174.67 93.698,132.667 142.261,90.666 93.698,132.667 
		132.431,166.349 93.698,132.667 54.966,98.985 93.698,132.667 60.017,171.399 93.698,132.667 127.38,93.936 93.698,132.667 
		94.864,150.543 93.698,132.667 92.532,114.792 93.698,132.667 75.823,133.833 93.698,132.667 111.573,131.501 	"/>
</g>
<g>
	<line fill="none" x1="177.473" y1="104.217" x2="189.853" y2="109.169"/>
	<circle fill="none" cx="177.473" cy="104.217" r="11.112"/>
	<circle fill="none" cx="177.473" cy="104.217" r="13.333"/>
	<polyline fill="none" points="177.473,104.217 177.773,104.397 177.473,104.217 177.173,104.037 177.473,104.217 177.293,104.518 
		177.473,104.217 177.652,103.917 177.473,104.217 176.482,108.135 177.473,104.217 178.463,100.3 177.473,104.217 173.556,103.227 
		177.473,104.217 181.39,105.208 177.473,104.217 196.942,129.611 177.473,104.217 158.003,78.823 177.473,104.217 152.079,123.687 
		177.473,104.217 202.867,84.747 177.473,104.217 172.971,123.002 177.473,104.217 181.975,85.433 177.473,104.217 158.687,99.715 
		177.473,104.217 196.259,108.72 177.473,104.217 211.337,134.082 177.473,104.217 143.608,74.353 177.473,104.217 147.608,138.082 
		177.473,104.217 207.337,70.354 177.473,104.217 169.097,156.688 177.473,104.217 185.849,51.746 177.473,104.217 125.002,95.841 
		177.473,104.217 229.944,112.593 177.473,104.217 180.191,126.49 177.473,104.217 174.755,81.944 177.473,104.217 155.2,106.936 
		177.473,104.217 199.746,101.499 177.473,104.217 180.767,106.551 177.473,104.217 174.179,101.884 177.473,104.217 
		175.14,107.511 177.473,104.217 179.806,100.923 177.473,104.217 219.607,144.218 177.473,104.217 135.339,64.216 177.473,104.217 
		137.472,146.352 177.473,104.217 217.475,62.083 177.473,104.217 222.763,144.881 177.473,104.217 132.183,63.553 177.473,104.217 
		136.808,149.508 177.473,104.217 218.138,58.927 177.473,104.217 209.789,126.936 177.473,104.217 145.157,81.499 177.473,104.217 
		154.754,136.533 177.473,104.217 200.191,71.901 177.473,104.217 217.832,129.421 177.473,104.217 137.114,79.013 177.473,104.217 
		152.269,144.576 177.473,104.217 202.677,63.858 177.473,104.217 208.159,139.697 177.473,104.217 146.786,68.737 177.473,104.217 
		141.993,134.904 177.473,104.217 212.952,73.531 177.473,104.217 205.771,128.824 177.473,104.217 149.176,79.609 177.473,104.217 
		152.865,132.515 177.473,104.217 202.08,75.92 177.473,104.217 178.325,117.277 177.473,104.217 176.621,91.158 177.473,104.217 
		164.413,105.069 177.473,104.217 190.532,103.365 	"/>
	<radialGradient id="SVGID_4_" cx="177.4727" cy="104.2168" r="26.668" gradientUnits="userSpaceOnUse">
		<stop  offset="0" style="stop-color:#230000"/>
		<stop  offset="0.73" style="stop-color:#93432A"/>
		<stop  offset="1" style="stop-color:#230000"/>
	</radialGradient>
	<circle opacity="0.15" fill="url(#SVGID_4_)" cx="177.473" cy="104.217" r="26.668"/>
	<radialGradient id="SVGID_5_" cx="177.4727" cy="104.2168" r="13.334" gradientUnits="userSpaceOnUse">
		<stop  offset="0.15" style="stop-color:#FFFFFF"/>
		<stop  offset="0.2114" style="stop-color:#E2D1D2"/>
		<stop  offset="0.2918" style="stop-color:#BF9A9C"/>
		<stop  offset="0.3613" style="stop-color:#A67276"/>
		<stop  offset="0.4163" style="stop-color:#975A5E"/>
		<stop  offset="0.45" style="stop-color:#915155"/>
		<stop  offset="0.5553" style="stop-color:#6C3638"/>
		<stop  offset="0.6842" style="stop-color:#44191A"/>
		<stop  offset="0.787" style="stop-color:#2C0707"/>
		<stop  offset="0.85" style="stop-color:#230000"/>
		<stop  offset="0.8572" style="stop-color:#270201"/>
		<stop  offset="0.8647" style="stop-color:#340805"/>
		<stop  offset="0.8723" style="stop-color:#48120B"/>
		<stop  offset="0.88" style="stop-color:#652114"/>
		<stop  offset="0.8878" style="stop-color:#8B331F"/>
		<stop  offset="0.8955" style="stop-color:#B8492D"/>
		<stop  offset="0.9" style="stop-color:#D65836"/>
		<stop  offset="0.903" style="stop-color:#C95232"/>
		<stop  offset="0.9146" style="stop-color:#9D3C25"/>
		<stop  offset="0.9267" style="stop-color:#782A1A"/>
		<stop  offset="0.9392" style="stop-color:#591B10"/>
		<stop  offset="0.9523" style="stop-color:#410F09"/>
		<stop  offset="0.9661" style="stop-color:#300604"/>
		<stop  offset="0.9812" style="stop-color:#260201"/>
		<stop  offset="1" style="stop-color:#230000"/>
	</radialGradient>
	<circle opacity="0.5" fill="url(#SVGID_5_)" cx="177.473" cy="104.217" r="13.333"/>
	<radialGradient id="SVGID_6_" cx="177.4727" cy="104.2168" r="11.1118" gradientUnits="userSpaceOnUse">
		<stop  offset="0.15" style="stop-color:#FFFFFF"/>
		<stop  offset="0.2824" style="stop-color:#C2C2C2"/>
		<stop  offset="0.4253" style="stop-color:#888888"/>
		<stop  offset="0.5636" style="stop-color:#575757"/>
		<stop  offset="0.6936" style="stop-color:#313131"/>
		<stop  offset="0.8134" style="stop-color:#161616"/>
		<stop  offset="0.9192" style="stop-color:#060606"/>
		<stop  offset="1" style="stop-color:#000000"/>
	</radialGradient>
	<circle fill="url(#SVGID_6_)" cx="177.473" cy="104.217" r="11.112"/>
	<polyline opacity="0.03" fill="none" stroke="#FFFFFF" stroke-width="1.6508" stroke-miterlimit="10" points="177.473,104.217 
		177.773,104.397 177.473,104.217 177.173,104.037 177.473,104.217 177.293,104.518 177.473,104.217 177.652,103.917 
		177.473,104.217 176.482,108.135 177.473,104.217 178.463,100.3 177.473,104.217 173.556,103.227 177.473,104.217 181.39,105.208 
		177.473,104.217 196.942,129.611 177.473,104.217 158.003,78.823 177.473,104.217 152.079,123.687 177.473,104.217 202.867,84.747 
		177.473,104.217 172.971,123.002 177.473,104.217 181.975,85.433 177.473,104.217 158.687,99.715 177.473,104.217 196.259,108.72 
		177.473,104.217 211.337,134.082 177.473,104.217 143.608,74.353 177.473,104.217 147.608,138.082 177.473,104.217 207.337,70.354 
		177.473,104.217 169.097,156.688 177.473,104.217 185.849,51.746 177.473,104.217 125.002,95.841 177.473,104.217 229.944,112.593 
		177.473,104.217 180.191,126.49 177.473,104.217 174.755,81.944 177.473,104.217 155.2,106.936 177.473,104.217 199.746,101.499 
		177.473,104.217 180.767,106.551 177.473,104.217 174.179,101.884 177.473,104.217 175.14,107.511 177.473,104.217 
		179.806,100.923 177.473,104.217 219.607,144.218 177.473,104.217 135.339,64.216 177.473,104.217 137.472,146.352 
		177.473,104.217 217.475,62.083 177.473,104.217 222.763,144.881 177.473,104.217 132.183,63.553 177.473,104.217 136.808,149.508 
		177.473,104.217 218.138,58.927 177.473,104.217 209.789,126.936 177.473,104.217 145.157,81.499 177.473,104.217 154.754,136.533 
		177.473,104.217 200.191,71.901 177.473,104.217 217.832,129.421 177.473,104.217 137.114,79.013 177.473,104.217 152.269,144.576 
		177.473,104.217 202.677,63.858 177.473,104.217 208.159,139.697 177.473,104.217 146.786,68.737 177.473,104.217 141.993,134.904 
		177.473,104.217 212.952,73.531 177.473,104.217 205.771,128.824 177.473,104.217 149.176,79.609 177.473,104.217 152.865,132.515 
		177.473,104.217 202.08,75.92 177.473,104.217 178.325,117.277 177.473,104.217 176.621,91.158 177.473,104.217 164.413,105.069 
		177.473,104.217 190.532,103.365 	"/>
</g>
<g>
	<line fill="none" x1="205.159" y1="130.667" x2="210.181" y2="132.675"/>
	<circle fill="none" cx="205.159" cy="130.667" r="4.507"/>
	<circle fill="none" cx="205.159" cy="130.667" r="5.408"/>
	<polyline fill="none" points="205.159,130.667 205.281,130.739 205.159,130.667 205.037,130.593 205.159,130.667 205.086,130.788 
		205.159,130.667 205.231,130.544 205.159,130.667 204.757,132.255 205.159,130.667 205.561,129.077 205.159,130.667 
		203.57,130.265 205.159,130.667 206.748,131.068 205.159,130.667 213.056,140.966 205.159,130.667 197.262,120.366 
		205.159,130.667 194.858,138.563 205.159,130.667 215.459,122.769 205.159,130.667 203.333,138.286 205.159,130.667 
		206.984,123.047 205.159,130.667 197.539,128.84 205.159,130.667 212.778,132.493 205.159,130.667 218.895,142.78 205.159,130.667 
		191.423,118.553 205.159,130.667 193.046,144.402 205.159,130.667 217.272,116.931 205.159,130.667 201.762,151.949 
		205.159,130.667 208.557,109.383 205.159,130.667 183.876,127.269 205.159,130.667 226.442,134.063 205.159,130.667 206.262,139.7 
		205.159,130.667 204.057,121.632 205.159,130.667 196.125,131.769 205.159,130.667 214.193,129.563 205.159,130.667 
		206.495,131.613 205.159,130.667 203.822,129.72 205.159,130.667 204.213,132.002 205.159,130.667 206.105,129.33 205.159,130.667 
		222.249,146.892 205.159,130.667 188.068,114.441 205.159,130.667 188.934,147.756 205.159,130.667 221.384,113.576 
		205.159,130.667 223.529,147.16 205.159,130.667 186.788,114.172 205.159,130.667 188.664,149.037 205.159,130.667 
		221.653,112.296 205.159,130.667 218.267,139.881 205.159,130.667 192.051,121.451 205.159,130.667 195.943,143.774 
		205.159,130.667 214.374,117.559 205.159,130.667 221.529,140.89 205.159,130.667 188.789,120.443 205.159,130.667 
		194.936,147.036 205.159,130.667 215.382,114.296 205.159,130.667 217.605,145.058 205.159,130.667 192.712,116.275 
		205.159,130.667 190.768,143.113 205.159,130.667 219.55,118.22 205.159,130.667 216.637,140.647 205.159,130.667 193.682,120.685 
		205.159,130.667 195.178,142.145 205.159,130.667 215.14,119.188 205.159,130.667 205.505,135.963 205.159,130.667 
		204.813,125.369 205.159,130.667 199.861,131.012 205.159,130.667 210.456,130.321 	"/>
	<radialGradient id="SVGID_7_" cx="205.1582" cy="130.666" r="10.8171" gradientUnits="userSpaceOnUse">
		<stop  offset="0" style="stop-color:#230000"/>
		<stop  offset="0.73" style="stop-color:#93432A"/>
		<stop  offset="1" style="stop-color:#230000"/>
	</radialGradient>
	<circle opacity="0.15" fill="url(#SVGID_7_)" cx="205.159" cy="130.667" r="10.817"/>
	<radialGradient id="SVGID_8_" cx="205.1592" cy="130.666" r="5.4084" gradientUnits="userSpaceOnUse">
		<stop  offset="0.15" style="stop-color:#FFFFFF"/>
		<stop  offset="0.2114" style="stop-color:#E2D1D2"/>
		<stop  offset="0.2918" style="stop-color:#BF9A9C"/>
		<stop  offset="0.3613" style="stop-color:#A67276"/>
		<stop  offset="0.4163" style="stop-color:#975A5E"/>
		<stop  offset="0.45" style="stop-color:#915155"/>
		<stop  offset="0.5553" style="stop-color:#6C3638"/>
		<stop  offset="0.6842" style="stop-color:#44191A"/>
		<stop  offset="0.787" style="stop-color:#2C0707"/>
		<stop  offset="0.85" style="stop-color:#230000"/>
		<stop  offset="0.8572" style="stop-color:#270201"/>
		<stop  offset="0.8647" style="stop-color:#340805"/>
		<stop  offset="0.8723" style="stop-color:#48120B"/>
		<stop  offset="0.88" style="stop-color:#652114"/>
		<stop  offset="0.8878" style="stop-color:#8B331F"/>
		<stop  offset="0.8955" style="stop-color:#B8492D"/>
		<stop  offset="0.9" style="stop-color:#D65836"/>
		<stop  offset="0.903" style="stop-color:#C95232"/>
		<stop  offset="0.9146" style="stop-color:#9D3C25"/>
		<stop  offset="0.9267" style="stop-color:#782A1A"/>
		<stop  offset="0.9392" style="stop-color:#591B10"/>
		<stop  offset="0.9523" style="stop-color:#410F09"/>
		<stop  offset="0.9661" style="stop-color:#300604"/>
		<stop  offset="0.9812" style="stop-color:#260201"/>
		<stop  offset="1" style="stop-color:#230000"/>
	</radialGradient>
	<circle opacity="0.5" fill="url(#SVGID_8_)" cx="205.159" cy="130.667" r="5.408"/>
	<radialGradient id="SVGID_9_" cx="205.1592" cy="130.666" r="4.5068" gradientUnits="userSpaceOnUse">
		<stop  offset="0.15" style="stop-color:#FFFFFF"/>
		<stop  offset="0.2824" style="stop-color:#C2C2C2"/>
		<stop  offset="0.4253" style="stop-color:#888888"/>
		<stop  offset="0.5636" style="stop-color:#575757"/>
		<stop  offset="0.6936" style="stop-color:#313131"/>
		<stop  offset="0.8134" style="stop-color:#161616"/>
		<stop  offset="0.9192" style="stop-color:#060606"/>
		<stop  offset="1" style="stop-color:#000000"/>
	</radialGradient>
	<circle fill="url(#SVGID_9_)" cx="205.159" cy="130.667" r="4.507"/>
	<polyline opacity="0.03" fill="none" stroke="#FFFFFF" stroke-width="0.6696" stroke-miterlimit="10" points="205.159,130.667 
		205.281,130.739 205.159,130.667 205.037,130.593 205.159,130.667 205.086,130.788 205.159,130.667 205.231,130.544 
		205.159,130.667 204.757,132.255 205.159,130.667 205.561,129.077 205.159,130.667 203.57,130.265 205.159,130.667 
		206.748,131.068 205.159,130.667 213.056,140.966 205.159,130.667 197.262,120.366 205.159,130.667 194.858,138.563 
		205.159,130.667 215.459,122.769 205.159,130.667 203.333,138.286 205.159,130.667 206.984,123.047 205.159,130.667 
		197.539,128.84 205.159,130.667 212.778,132.493 205.159,130.667 218.895,142.78 205.159,130.667 191.423,118.553 205.159,130.667 
		193.046,144.402 205.159,130.667 217.272,116.931 205.159,130.667 201.762,151.949 205.159,130.667 208.557,109.383 
		205.159,130.667 183.876,127.269 205.159,130.667 226.442,134.063 205.159,130.667 206.262,139.7 205.159,130.667 204.057,121.632 
		205.159,130.667 196.125,131.769 205.159,130.667 214.193,129.563 205.159,130.667 206.495,131.613 205.159,130.667 
		203.822,129.72 205.159,130.667 204.213,132.002 205.159,130.667 206.105,129.33 205.159,130.667 222.249,146.892 205.159,130.667 
		188.068,114.441 205.159,130.667 188.934,147.756 205.159,130.667 221.384,113.576 205.159,130.667 223.529,147.16 
		205.159,130.667 186.788,114.172 205.159,130.667 188.664,149.037 205.159,130.667 221.653,112.296 205.159,130.667 
		218.267,139.881 205.159,130.667 192.051,121.451 205.159,130.667 195.943,143.774 205.159,130.667 214.374,117.559 
		205.159,130.667 221.529,140.89 205.159,130.667 188.789,120.443 205.159,130.667 194.936,147.036 205.159,130.667 
		215.382,114.296 205.159,130.667 217.605,145.058 205.159,130.667 192.712,116.275 205.159,130.667 190.768,143.113 
		205.159,130.667 219.55,118.22 205.159,130.667 216.637,140.647 205.159,130.667 193.682,120.685 205.159,130.667 195.178,142.145 
		205.159,130.667 215.14,119.188 205.159,130.667 205.505,135.963 205.159,130.667 204.813,125.369 205.159,130.667 
		199.861,131.012 205.159,130.667 210.456,130.321 	"/>
</g>
</svg>
