<?xml version="1.0" encoding="utf-8"?>
<!-- Generator: Adobe Illustrator 15.0.0, SVG Export Plug-In . SVG Version: 6.00 Build 0)  -->
<!DOCTYPE svg PUBLIC "-//W3C//DTD SVG 1.1//EN" "http://www.w3.org/Graphics/SVG/1.1/DTD/svg11.dtd">
<svg version="1.1" id="Layer_1" xmlns="http://www.w3.org/2000/svg" xmlns:xlink="http://www.w3.org/1999/xlink" x="0px" y="0px"
	 width="299.564px" height="298.682px" viewBox="0 0 299.564 298.682" enable-background="new 0 0 299.564 298.682"
	 xml:space="preserve">
<circle fill="#F6EA5F" cx="149.291" cy="149.292" r="149.291"/>
<path opacity="0.4" fill="#E3C500" enable-background="new    " d="M298.581,149.292c0-11.104,2.246,6.434-0.053-3.979
	l-99.16-98.689l-18.122,47.199l-35.364-34.879L84.547,244.443l57.315,53.957c4.973,0.5,2.324,0.185,7.429,0.185
	C231.741,298.583,298.581,231.744,298.581,149.292z"/>
<path fill="#24A5E0" d="M138.682,164.507c-1.689,26.18,0.504,90.335-36.918,86.744c-37.425-3.59-27.646-45.729-27.752-95.508
	c-0.072-33.11-7.605-71.712,5.549-86.164c21.923-24.084,49.181-33.411,66.32-10.637C163.024,81.718,141.313,123.738,138.682,164.507
	z"/>
<path fill="#664020" d="M122.004,78.27c-1.912,0.024-4.968,5.265-4.968,5.265s-16.177,3.972-29.603,20.737
	c-13.429,16.77-13.511,19.832-13.938,34.86c-0.428,15.055,0.874,35.109,5.065,43.022c4.19,7.911,6.09,10.386,8.837,8.799
	c2.748-1.587,2.596-8.43,1.341-11.743c-1.256-3.312-13.551-31.324-12.435-34.948c1.113-3.622,0.473-11.894,5.239-17.464
	c4.77-5.569,28.795-33.998,34.68-30.68c5.884,3.317,21.526,29.604,22.188,37.582c0.661,7.979,1.333,11.23-4.863,20.701
	c-6.194,9.473-14.982,22.69-15.918,23.514c-0.935,0.82-3.568,9.763-0.773,12c2.795,2.236,3.71,1.709,8.243-4.758
	c4.53-6.469,14.494-30.12,14.71-31.633c0.215-1.511,3.819-20.984,4.516-24.094c0.694-3.105,1.018-12.038-6.715-24.293
	c-7.732-12.256-10.036-17.546-16.354-19.863c1.242-1.75,1.217-2.598,2.218-4.44S123.916,78.245,122.004,78.27z"/>
<path fill="#1F7BC0" d="M145.656,124.777c-6.504,14.318-7.857,41.868-14.573,56.45c-7.28,17.164-2.983,22.583-11.908,37.878
	c-7.784,13.349-25.404,18.984-40.896,16.843c4.102,8.599,11.325,14.068,23.783,15.267c37.422,3.589,35.229-60.563,36.919-86.745
	C139.839,151.132,142.741,137.664,145.656,124.777z"/>
<path fill="#24A5E0" d="M161.788,160.871c-1.372,26.197-11.021,89.66,26.564,90.453s32.779-42.198,38.688-91.625
	c3.928-32.878,15.904-70.34,4.523-86.225c-18.971-26.474-44.955-38.913-64.632-18.289C147.254,75.81,163.923,120.07,161.788,160.871
	z"/>
<path fill="#664020" d="M188.396,77.162c1.896,0.247,4.318,5.807,4.318,5.807s15.604,5.828,26.987,24.048
	c11.382,18.217,11.106,21.271,9.781,36.244c-1.328,15.001-4.956,34.771-10.041,42.141c-5.086,7.37-7.259,9.604-9.803,7.711
	c-2.546-1.896-1.598-8.673,0.035-11.817c1.635-3.146,17.105-29.536,16.422-33.264c-0.688-3.729,0.914-11.867-3.174-17.956
	c-4.087-6.088-24.639-37.12-30.867-34.511c-6.229,2.61-24.828,26.896-26.414,34.742c-1.586,7.847-2.634,11,2.419,21.128
	c5.05,10.13,12.237,24.281,13.069,25.206s2.408,10.111-0.629,12.01c-3.036,1.896-3.884,1.267-7.633-5.688
	c-3.747-6.951-10.889-31.604-10.925-33.13c-0.038-1.524-1.353-21.287-1.679-24.454c-0.328-3.168,0.391-12.075,9.498-23.346
	c9.105-11.271,12.012-16.259,18.555-17.824c-1.029-1.883-0.904-2.721-1.686-4.67C185.858,77.591,186.5,76.915,188.396,77.162z"/>
<path fill="#1F7BC0" d="M232.58,125.726c-6.329,14.396-9.272,40.613-15.812,55.274c-7.07,17.253-2.71,22.62-11.446,38.021
	c-7.623,13.438-24.569,18.14-40.087,16.185c4.206,8.549,9.91,15.409,23.363,16.129c14.076,0.753,23.457-6.686,27.801-17.342
	c6.736-16.535,7.527-39.666,9.222-60.616C226.695,160.057,229.822,138.647,232.58,125.726z"/>
</svg>
